# xmcd
#
# Track frame offsets:
#	150
#	2020
#	16656
#	29723
#	49100
#	61783
#	72219
#	88928
#	108218
#	123047
#	136765
#	159733
#
# Disc length: 2476 seconds
#
# Revision: 0
# Processed by: cddbd v1.5.2PL0 Copyright (c) Steve Scherf et al.
# Submitted via: audiograbber 1.83.01
#
DISCID=9009aa0c
DTITLE=Kit "Stymee" Stovepipe - Homemade Recordings
DYEAR=2006
DGENRE=Country Blues
TTITLE0=Corndog Gal
TTITLE1=Ain't Gonna Be Worried No More
TTITLE2=Original Stack O'Lee Blues
TTITLE3=Decapitated Blues
TTITLE4=What Can I Do For You
TTITLE5=Peach Pickin' Time in Georgia
TTITLE6=Big Leg Blues
TTITLE7=Alexandra Rag
TTITLE8=Baloon Ascension Rag
TTITLE9=Fare Thee Blues pt. 1
TTITLE10=Owl Blues
TTITLE11=Lucky Stars
EXTD=
EXTT0=
EXTT1=
EXTT2=
EXTT3=
EXTT4=
EXTT5=
EXTT6=
EXTT7=
EXTT8=
EXTT9=
EXTT10=
EXTT11=
PLAYORDER=
